<svg width="22" height="22" viewBox="0 0 22 22" fill="none" xmlns="http://www.w3.org/2000/svg">
<g clip-path="url(#clip0_203_344)">
<mask id="mask0_203_344" style="mask-type:luminance" maskUnits="userSpaceOnUse" x="0" y="0" width="22" height="22">
<rect width="22" height="22" fill="white"/>
</mask>
<g mask="url(#mask0_203_344)">
<path d="M19.25 14.4375C18.8833 14.4375 18.5625 14.7583 18.5625 15.125V17.875C18.5625 18.0125 18.4708 18.1042 18.3333 18.1042H3.66667C3.52917 18.1042 3.4375 18.0125 3.4375 17.875V15.125C3.4375 14.7583 3.11667 14.4375 2.75 14.4375C2.38333 14.4375 2.0625 14.7583 2.0625 15.125V17.875C2.0625 18.7458 2.79583 19.4792 3.66667 19.4792H18.3333C19.2042 19.4792 19.9375 18.7458 19.9375 17.875V15.125C19.9375 14.7583 19.6167 14.4375 19.25 14.4375Z" fill="white"/>
<path d="M10.4958 15.6293C10.6333 15.7667 10.8167 15.8126 11 15.8126C11.1833 15.8126 11.3667 15.7667 11.5042 15.6293L16.0875 11.0459C16.3625 10.7709 16.3625 10.3584 16.0875 10.0834C15.8125 9.80841 15.4 9.80841 15.125 10.0834L11.7333 13.4751V3.66675C11.7333 3.30008 11.4125 2.97925 11.0458 2.97925C10.6792 2.97925 10.3125 3.30008 10.3125 3.66675V13.4751L6.92083 10.0834C6.64583 9.80842 6.23333 9.80842 5.95833 10.0834C5.68333 10.3584 5.68333 10.7709 5.95833 11.0459L10.4958 15.6293Z" fill="white"/>
</g>
</g>
<defs>
<clipPath id="clip0_203_344">
<rect width="22" height="22" fill="white"/>
</clipPath>
</defs>
</svg>
