<svg width="32" height="35" viewBox="0 0 32 35" fill="none" xmlns="http://www.w3.org/2000/svg">
<path fill-rule="evenodd" clip-rule="evenodd" d="M1 23.7659V24.458C1 24.9964 1.20765 26.1884 2.03823 26.6499L14.497 33.5714C14.9584 33.8406 16.2273 34.2174 17.6117 33.5714C18.996 32.9254 26.4943 29.0724 30.0704 27.2267C30.378 27.0728 30.9933 26.5114 30.9933 25.4963V8.76927C31.0317 8.46164 30.924 7.73104 30.1858 7.2696C29.4475 6.80817 21.2647 3.00133 17.2656 1.15559C16.7657 0.924875 15.4429 0.60187 14.1509 1.15559C12.8589 1.70931 5.69125 5.07779 2.26895 6.69281C1.84596 6.88507 1 7.56954 1 8.76927V23.7659ZM17.1502 6.27129C17.1502 5.92521 17.3348 5.30227 18.073 5.57913C18.8113 5.85599 24.4562 8.69382 27.1864 10.0781V24.2672L17.8423 29.1123C17.6116 29.1508 17.1502 29.1354 17.1502 28.7662V6.27129Z" fill="black"/>
<path d="M2.03823 26.6499L2.28105 26.2128L2.28105 26.2128L2.03823 26.6499ZM14.497 33.5714L14.749 33.1394L14.7398 33.1343L14.497 33.5714ZM17.6117 33.5714L17.4002 33.1183L17.4002 33.1183L17.6117 33.5714ZM30.0704 27.2267L29.8468 26.7794L29.8411 26.7823L30.0704 27.2267ZM30.9933 8.76927L30.4971 8.70725L30.4933 8.73814V8.76927H30.9933ZM30.1858 7.2696L30.4508 6.8456L30.4508 6.8456L30.1858 7.2696ZM17.2656 1.15559L17.056 1.60957L17.056 1.60957L17.2656 1.15559ZM14.1509 1.15559L14.3479 1.61516L14.3479 1.61516L14.1509 1.15559ZM2.26895 6.69281L2.47587 7.14804L2.48233 7.14499L2.26895 6.69281ZM18.073 5.57913L17.8975 6.0473L17.8975 6.0473L18.073 5.57913ZM27.1864 10.0781H27.6864V9.77104L27.4125 9.63217L27.1864 10.0781ZM27.1864 24.2672L27.4165 24.7111L27.6864 24.5712V24.2672H27.1864ZM17.8423 29.1123L17.9245 29.6055L18.0024 29.5925L18.0725 29.5562L17.8423 29.1123ZM1.5 24.458V23.7659H0.5V24.458H1.5ZM2.28105 26.2128C2.01158 26.0631 1.81105 25.7745 1.67685 25.41C1.54403 25.0493 1.5 24.6761 1.5 24.458H0.5C0.5 24.7783 0.559789 25.2703 0.738438 25.7555C0.91571 26.237 1.2343 26.7752 1.79541 27.0869L2.28105 26.2128ZM14.7398 33.1343L2.28105 26.2128L1.79541 27.0869L14.2541 34.0085L14.7398 33.1343ZM17.4002 33.1183C16.1907 33.6827 15.0957 33.3418 14.7489 33.1395L14.245 34.0033C14.8211 34.3393 16.264 34.7521 17.8231 34.0245L17.4002 33.1183ZM29.8411 26.7823C26.2577 28.6318 18.7727 32.4778 17.4002 33.1183L17.8231 34.0245C19.2192 33.373 26.7308 29.513 30.2997 27.671L29.8411 26.7823ZM30.4933 25.4963C30.4933 26.2935 30.0121 26.6968 29.8468 26.7794L30.294 27.6739C30.7439 27.4489 31.4933 26.7293 31.4933 25.4963H30.4933ZM30.4933 8.76927V25.4963H31.4933V8.76927H30.4933ZM29.9208 7.6936C30.4589 8.02998 30.517 8.54821 30.4971 8.70725L31.4894 8.83128C31.5464 8.37508 31.3891 7.4321 30.4508 6.8456L29.9208 7.6936ZM17.056 1.60957C19.0549 2.53214 22.0993 3.94476 24.7357 5.1842C26.0541 5.804 27.2694 6.37995 28.2005 6.82946C29.149 7.28733 29.7657 7.59667 29.9208 7.6936L30.4508 6.8456C30.2367 6.71182 29.5537 6.37227 28.6352 5.9289C27.6995 5.47717 26.4807 4.89953 25.1612 4.27922C22.5219 3.03845 19.4753 1.62478 17.4751 0.701612L17.056 1.60957ZM14.3479 1.61516C15.4728 1.13303 16.6432 1.41901 17.056 1.60957L17.4751 0.701612C16.8882 0.430739 15.413 0.070708 13.9539 0.696019L14.3479 1.61516ZM2.48233 7.14499C5.91137 5.52679 13.0667 2.16425 14.3479 1.61516L13.9539 0.696019C12.6511 1.25438 5.47114 4.62878 2.05556 6.24063L2.48233 7.14499ZM1.5 8.76927C1.5 7.82613 2.1688 7.28756 2.47585 7.14799L2.06204 6.23763C1.52312 6.48259 0.5 7.31294 0.5 8.76927H1.5ZM1.5 23.7659V8.76927H0.5V23.7659H1.5ZM18.2486 5.11097C18.0018 5.0184 17.754 4.98333 17.5168 5.03203C17.2731 5.08207 17.0853 5.21154 16.9523 5.36954C16.7068 5.66112 16.6502 6.04014 16.6502 6.27129H17.6502C17.6502 6.22577 17.6567 6.16781 17.6719 6.11333C17.6876 6.05746 17.7066 6.02633 17.7172 6.01368C17.7215 6.00859 17.7226 6.00857 17.7201 6.01013C17.7171 6.01203 17.7153 6.01214 17.718 6.01159C17.7231 6.01055 17.7752 6.00144 17.8975 6.0473L18.2486 5.11097ZM27.4125 9.63217C26.0467 8.93964 23.9517 7.88348 22.1053 6.96561C20.2787 6.05751 18.6491 5.26113 18.2486 5.11097L17.8975 6.0473C18.2353 6.17399 19.7973 6.93496 21.6602 7.86106C23.5034 8.77739 25.5959 9.8323 26.9603 10.5241L27.4125 9.63217ZM27.6864 24.2672V10.0781H26.6864V24.2672H27.6864ZM18.0725 29.5562L27.4165 24.7111L26.9562 23.8234L17.6122 28.6684L18.0725 29.5562ZM16.6502 28.7662C16.6502 28.9722 16.7183 29.1629 16.8521 29.3135C16.9775 29.4547 17.1324 29.5292 17.2602 29.5692C17.5062 29.6463 17.7654 29.632 17.9245 29.6055L17.7601 28.6191C17.732 28.6238 17.6914 28.6275 17.6488 28.6265C17.6047 28.6255 17.5744 28.6197 17.5592 28.615C17.5429 28.6099 17.568 28.6137 17.5997 28.6494C17.6165 28.6683 17.6307 28.6915 17.6399 28.7167C17.649 28.7414 17.6502 28.7596 17.6502 28.7662H16.6502ZM16.6502 6.27129V28.7662H17.6502V6.27129H16.6502Z" fill="black"/>
</svg>
