<svg width="39" height="39" viewBox="0 0 39 39" fill="none" xmlns="http://www.w3.org/2000/svg">
<g clip-path="url(#clip0_409_41)">
<path d="M19.5 0.0390625C14.339 0.0390625 9.38948 2.08924 5.74014 5.73858C2.0908 9.38792 0.0406189 14.3375 0.0406189 19.4984C0.0406189 24.6594 2.0908 29.609 5.74014 33.2583C9.38948 36.9076 14.339 38.9578 19.5 38.9578C24.6609 38.9578 29.6105 36.9076 33.2598 33.2583C36.9092 29.609 38.9594 24.6594 38.9594 19.4984C38.9594 14.3375 36.9092 9.38792 33.2598 5.73858C29.6105 2.08924 24.6609 0.0390625 19.5 0.0390625ZM34.3655 13.0131C35.2332 14.9988 35.7175 17.1926 35.7175 19.5001C35.7175 21.8076 35.2332 24.0013 34.3655 25.9871H27.053C27.4105 23.9753 27.6055 21.7881 27.6055 19.5001C27.6055 17.2121 27.4105 15.0248 27.053 13.0131H34.3655ZM14.638 19.5001C14.638 17.1698 14.8167 14.9663 15.1417 13.0131H23.855C24.18 14.9663 24.362 17.1698 24.362 19.5001C24.362 21.8303 24.18 24.0338 23.855 25.9871H15.145C14.82 24.0338 14.638 21.8303 14.638 19.5001ZM32.474 9.76956H26.299C25.545 7.23781 24.5115 5.15456 23.2927 3.73106C26.9623 4.61485 30.209 6.7502 32.474 9.76956ZM19.5 4.90756C20.9397 4.90756 22.2365 6.78931 23.127 9.77281H15.873C16.7635 6.78606 18.0602 4.90756 19.5 4.90756ZM15.7072 3.73431C14.4885 5.15456 13.455 7.24431 12.7042 9.77281H6.52924C8.79342 6.75407 12.0389 4.61879 15.7072 3.73431ZM4.63449 13.0131H11.947C11.5895 15.0248 11.3945 17.2121 11.3945 19.5001C11.3945 21.7881 11.5895 23.9753 11.947 25.9871H4.63449C3.74055 23.9413 3.2802 21.7326 3.28249 19.5001C3.28249 17.1926 3.76674 14.9988 4.63449 13.0131ZM6.52599 29.2306H12.701C13.455 31.7623 14.4885 33.8456 15.7072 35.2691C12.0377 34.3853 8.79099 32.2499 6.52599 29.2306ZM19.5 34.0926C18.0602 34.0926 16.7635 32.2108 15.873 29.2273H23.127C22.23 32.2141 20.9397 34.0926 19.5 34.0926ZM23.2927 35.2658C24.5115 33.8456 25.545 31.7558 26.2957 29.2273H32.4707C30.2066 32.2461 26.9611 34.3813 23.2927 35.2658Z" fill="#404040"/>
</g>
<defs>
<clipPath id="clip0_409_41">
<rect width="39" height="39" fill="white"/>
</clipPath>
</defs>
</svg>
