<svg width="45" height="45" viewBox="0 0 45 45" fill="none" xmlns="http://www.w3.org/2000/svg">
<path d="M39.8593 27.2048L35.8229 28.2868L37.2265 33.5255L33.6836 31.4798L33.6652 31.5124L24.5083 26.2257V14.5007H24.5281V10.4098L28.3632 14.2449L31.318 11.29L22.4319 2.4043L13.5461 11.29L16.501 14.2449L20.3335 10.4125V26.2257L7.78884 33.4684L9.17708 28.2868L5.1407 27.2048L1.88831 39.3434L14.0264 42.5958L15.1079 38.5594L9.86921 37.1554L13.4121 35.1102L13.3826 35.0592L22.4209 29.8411L35.1031 37.1628L29.892 38.5594L30.9735 42.5958L43.1116 39.3434L39.8593 27.2048Z" fill="#404040"/>
</svg>
