<svg width="51" height="51" viewBox="0 0 51 51" fill="none" xmlns="http://www.w3.org/2000/svg">
<path d="M11.0511 15.3002H0.851074V11.8991H14.4489L23.5461 2.80518L43.9461 23.2052L22.3539 44.7941L1.95395 24.3941L11.0511 15.3002ZM9.01107 22.0991H38.0811L23.5461 7.56411L19.2111 11.8991H23.8011V15.3002H15.81L9.01107 22.0991ZM36.8889 25.5002H7.81895L22.3539 40.0352L36.8889 25.5002ZM44.2011 48.4502C43.4181 48.4553 42.642 48.3048 41.9177 48.0075C41.1934 47.7103 40.5353 47.2721 39.9817 46.7185C39.4281 46.1649 38.9899 45.5068 38.6927 44.7825C38.3954 44.0582 38.2449 43.282 38.25 42.4991C38.25 39.7802 41.82 35.1041 42.84 33.7462L44.2011 32.1302L45.5589 33.7462C46.665 35.1041 50.1489 39.6941 50.1489 42.4991C50.1489 45.8141 47.5161 48.4502 44.2011 48.4502ZM44.2011 37.6541C42.84 39.6112 41.6511 41.6512 41.6511 42.4991C41.6511 43.9462 42.7539 45.0491 44.2011 45.0491C45.645 45.0491 46.7511 43.9462 46.7511 42.4991C46.7511 41.7341 45.5589 39.6112 44.2011 37.6541Z" fill="#404040"/>
</svg>
