<svg width="39" height="39" viewBox="0 0 39 39" fill="none" xmlns="http://www.w3.org/2000/svg">
<path d="M10.4984 1.5279e-05H17.9958V4.49934H10.4984V1.5279e-05ZM28.4941 1.5279e-05H20.9947V4.49934H28.4941V1.5279e-05ZM10.4964 38.998H17.9977V34.5007H10.4984V39L10.4964 38.998ZM4.50042 1.5279e-05C3.90915 -0.00152753 3.3234 0.113784 2.77682 0.339325C2.23023 0.564867 1.73359 0.896194 1.3154 1.31428C0.89722 1.73236 0.565741 2.22896 0.340007 2.77555C0.114272 3.32214 -0.00127099 3.90795 1.52761e-05 4.49934V7.50084H4.49847V5.99911C4.49847 5.17414 5.17314 4.49934 5.9999 4.49934H7.49744V1.5279e-05H4.49847H4.50042ZM4.50042 10.5004H1.52761e-05V17.9993H4.49847V10.5004H4.50042ZM1.52761e-05 28.4996H4.49847V20.9988H1.52761e-05V28.4996ZM4.49847 32.9989V31.4992H1.52761e-05V34.4987C-0.00152723 35.0901 0.113762 35.676 0.33926 36.2227C0.564758 36.7693 0.896022 37.2661 1.31402 37.6843C1.73203 38.1026 2.22853 38.4342 2.77501 38.6599C3.3215 38.8857 3.9072 39.0013 4.49847 39H7.49939V34.4987H5.99795C5.60058 34.4977 5.21978 34.3393 4.9388 34.0583C4.65781 33.7773 4.4995 33.3964 4.49847 32.9989ZM34.494 5.99911V7.50084H38.9925V4.49934C38.9937 3.90812 38.8783 3.32246 38.6527 2.776C38.427 2.22954 38.0957 1.73303 37.6778 1.31497C37.2598 0.896913 36.7634 0.565544 36.217 0.339887C35.6707 0.114231 35.0851 -0.00127027 34.494 1.5279e-05H31.495V4.49934H32.9945C33.8193 4.49934 34.496 5.17414 34.496 6.00106L34.494 5.99911ZM34.494 17.9993H38.9925V10.5004H34.494V17.9993ZM38.3353 35.156L33.7628 30.5806L38.9925 28.4801L22.4962 22.481L28.4961 38.9805L30.5942 33.7498L35.1687 38.3232C35.3779 38.5329 35.6263 38.6992 35.8999 38.8127C36.1734 38.9261 36.4666 38.9846 36.7627 38.9846C37.0589 38.9846 37.3521 38.9261 37.6256 38.8127C37.8991 38.6992 38.1476 38.5329 38.3568 38.3232C38.7724 37.8997 39.0036 37.329 39 36.7356C38.9963 36.1422 38.7581 35.5743 38.3373 35.156H38.3353Z" fill="#404040"/>
</svg>
