<svg width="56" height="56" viewBox="0 0 56 56" fill="none" xmlns="http://www.w3.org/2000/svg">
<path d="M42.7052 21.1634C41.6286 13.7078 35.2309 8.18759 27.7005 8.21249C20.1702 8.23738 13.8098 13.8074 12.7892 21.263C7.80421 22.4268 4.31286 26.9201 4.41866 32.042C4.53068 37.9169 9.49698 42.6965 15.5026 42.6965C16.1187 42.7027 16.6913 42.3791 17.0024 41.8439C17.3136 41.3087 17.3136 40.649 17.0024 40.12C16.6913 39.5848 16.1187 39.2612 15.5026 39.2674C11.3578 39.2674 7.92245 36.0001 7.84777 31.9798C7.76687 28.3515 10.3309 25.2025 13.8969 24.5365C15.1043 24.3187 16.0191 23.3292 16.1374 22.1094C16.7535 16.1723 21.7447 11.6603 27.713 11.6416C33.6812 11.6229 38.7035 16.11 39.3508 22.0409C39.4877 23.3043 40.471 24.3063 41.7281 24.4743C45.3937 24.9909 48.1196 28.1212 48.1383 31.818C48.132 33.7597 47.3479 35.6205 45.9601 36.9772C44.5162 38.4272 42.5558 39.2487 40.5021 39.2612C39.886 39.255 39.3134 39.5786 39.0023 40.1138C38.6911 40.649 38.6911 41.3087 39.0023 41.8377C39.3134 42.3729 39.886 42.6965 40.5021 42.6903C43.4582 42.6716 46.2961 41.4892 48.3872 39.3981C50.4223 37.3942 51.5674 34.6621 51.5674 31.8117C51.5487 26.5965 47.8271 22.1343 42.7052 21.1634ZM37.6269 32.1042L30.3579 26.192C29.3435 25.3705 27.8934 25.3705 26.8728 26.192L19.6038 32.1042C19.1246 32.4901 18.8944 33.1 18.9877 33.7099C19.0873 34.3136 19.498 34.8239 20.0706 35.0417C20.6431 35.2595 21.2904 35.1537 21.7634 34.7679L26.8977 30.5919V46.0198C26.8977 46.9658 27.6632 47.7313 28.6091 47.7313C29.5551 47.7313 30.3206 46.9658 30.3206 46.0198V30.5795L35.4549 34.7554C36.1893 35.3529 37.2659 35.2408 37.8634 34.5065C38.467 33.7783 38.3613 32.7017 37.6269 32.1042Z" fill="#404040"/>
</svg>
