<svg xmlns="http://www.w3.org/2000/svg" xmlns:xlink="http://www.w3.org/1999/xlink" fill="none" version="1.1" width="60" height="53" viewBox="0 0 60 53"><defs><clipPath id="master_svg0_84_03353"><rect x="0" y="0" width="60" height="53" rx="0"/></clipPath></defs><g clip-path="url(#master_svg0_84_03353)"><g><path d="M13.8875,35.9737L13.885,36.4375L16.875,36.4375C17.9105,36.4375,18.75,37.179,18.75,38.0938L18.75,44.7188C18.75,45.6335,17.9105,46.375,16.875,46.375L9.375,46.375C8.339466,46.375,7.5,45.6335,7.5,44.7188L7.5,38.0938C7.5,37.179,8.339466,36.4375,9.375,36.4375L10.955,36.4375L10.955,35.9737L13.8875,35.9737ZM37.5,28.726L45.82,34.1475L45.82,32.822500000000005L48.75,32.822500000000005L48.75,35.412800000000004L47.76,35.4106L52.5,38.502300000000005L46.3025,38.8998L50.045,44.3279C50.085,44.3941,50.12,44.4604,50.135,44.5244C50.4148,45.1901,50.0659,45.9337,49.335,46.2293C48.5984,46.5435,47.7123,46.3351,47.25,45.739L47.25,45.7302L43.525,40.3352L43.42,40.3352L39.87,44.6282L37.5,28.726ZM36.175,39.8339L36.175,42.4221L33.25,42.4221L33.25,39.8339L36.18,39.8339L36.175,39.8339ZM30.3175,39.8339L30.3175,42.4221L27.3875,42.4221L27.3875,39.8339L30.3175,39.8339ZM24.4575,39.8339L24.4575,42.4221L21.53,42.4221L21.53,39.8339L24.4575,39.8339ZM13.8875,30.7974L13.8875,33.3856L10.9575,33.3856L10.9575,30.7974L13.8875,30.7974ZM48.75,27.6483L48.75,30.2365L45.82,30.2365L45.82,27.6483L48.75,27.6483ZM13.8875,25.6233L13.8875,28.2093L10.9575,28.2093L10.9575,25.6233L13.8875,25.6233ZM31.875,17.9604C32.9105,17.9604,33.75,18.701900000000002,33.75,19.6166L33.75,26.2416C33.75,27.1563,32.9105,27.8979,31.875,27.8979L24.375,27.8979C23.3395,27.8979,22.5,27.1563,22.5,26.2416L22.5,19.6166C22.5,18.701900000000002,23.3395,17.9604,24.375,17.9604L31.875,17.9604ZM48.75,22.472L48.75,25.0602L45.82,25.0602L45.82,22.472L48.75,22.472ZM13.8875,20.449199999999998L13.8875,23.0373L10.9575,23.0373L10.9575,20.447L13.8875,20.447L13.8875,20.449199999999998ZM50.625,11.59375C51.6605,11.59375,52.5,12.335280000000001,52.5,13.25L52.5,19.875C52.5,20.7897,51.6605,21.5312,50.625,21.5312L43.125,21.5312C42.0895,21.5312,41.25,20.7897,41.25,19.875L41.25,17.2449L40.595,17.6313L38.9725,15.47821L41.25,14.13775L41.25,13.25C41.25,12.335280000000001,42.0895,11.59375,43.125,11.59375L50.625,11.59375ZM36.535,16.9114L38.1575,19.0667L35.7175,20.5L34.095,18.3446L36.535,16.9114ZM21.515,15.09617L23.865,16.642L22.11,18.7178L19.7625,17.1676L21.515,15.09617ZM16.875,6.625C17.9105,6.625,18.75,7.366528,18.75,8.28125L18.75,13.26988L19.1675,13.545919999999999L18.75,14.04059L18.75,14.90625C18.75,15.82097,17.9105,16.5625,16.875,16.5625L13.885,16.5625L13.885,17.858800000000002L10.96,17.858800000000002L10.955,16.5625L9.375,16.5625C8.339466,16.5625,7.5,15.82097,7.5,14.90625L7.5,8.28125C7.5,7.366528,8.339466,6.625,9.375,6.625L16.875,6.625Z" fill="#404040" fill-opacity="1" style="mix-blend-mode:passthrough"/></g></g></svg>