<svg width="36" height="36" viewBox="0 0 36 36" fill="none" xmlns="http://www.w3.org/2000/svg">
<path d="M22.5085 16.4991C22.2032 15.569 21.6058 14.7623 20.8051 14.1991C20.0044 13.6358 19.0433 13.3462 18.0647 13.3733C17.2003 13.3743 16.3528 13.6134 15.6153 14.0644C14.8779 14.5154 14.2789 15.1608 13.8842 15.9299C12.537 16.1403 10.6003 17.0048 10.453 19.2486C10.4078 19.6472 10.4459 20.0507 10.5648 20.4337C10.6837 20.8168 10.8809 21.171 11.1437 21.4739C12.0831 22.51 13.6238 22.5584 14.2819 22.5792L23.4203 22.582C23.5209 22.5822 23.6207 22.5643 23.715 22.5291C24.2232 22.3144 24.6546 21.9511 24.9529 21.487C25.2512 21.0229 25.4024 20.4796 25.3868 19.9281C25.3997 17.8379 23.7375 16.8423 22.5085 16.4991ZM23.2172 20.894H14.3325C13.8887 20.8799 12.8498 20.8473 12.3913 20.3416C12.2835 20.2045 12.2051 20.0468 12.161 19.8781C12.1168 19.7094 12.1079 19.5334 12.1348 19.3611C12.2473 17.6866 14.382 17.5701 14.4692 17.5662C14.6345 17.559 14.7941 17.5039 14.9286 17.4075C15.063 17.3111 15.1665 17.1776 15.2263 17.0234C15.4574 16.456 15.849 15.9683 16.353 15.62C16.857 15.2717 17.4517 15.078 18.0641 15.0625C18.7459 15.0434 19.4128 15.2636 19.9492 15.6849C20.4855 16.1061 20.8574 16.7019 21.0004 17.3688C21.0333 17.5426 21.1197 17.7018 21.2475 17.8243C21.3752 17.9467 21.538 18.0262 21.7131 18.0516C21.9173 18.0809 23.7083 18.3858 23.697 19.9146C23.7086 20.1057 23.6703 20.2965 23.5858 20.4682C23.5012 20.6399 23.3734 20.7866 23.215 20.894H23.2172Z" fill="#1771B9"/>
<path d="M33.0986 18.8432C33.3224 18.8432 33.537 18.7543 33.6952 18.5961C33.8535 18.4378 33.9424 18.2232 33.9424 17.9994C33.9424 17.7757 33.8535 17.561 33.6952 17.4028C33.537 17.2446 33.3224 17.1557 33.0986 17.1557H31.1175V13.9067H33.0986C33.3224 13.9067 33.537 13.8178 33.6952 13.6596C33.8535 13.5013 33.9424 13.2867 33.9424 13.0629C33.9424 12.8392 33.8535 12.6245 33.6952 12.4663C33.537 12.3081 33.3224 12.2192 33.0986 12.2192H31.1175V7.28774C31.1169 6.65011 30.8634 6.03876 30.4126 5.58783C29.9617 5.1369 29.3504 4.88324 28.7128 4.88249H23.7943V2.90137C23.7943 2.67759 23.7054 2.46298 23.5472 2.30475C23.3889 2.14651 23.1743 2.05762 22.9506 2.05762C22.7268 2.05762 22.5122 2.14651 22.3539 2.30475C22.1957 2.46298 22.1068 2.67759 22.1068 2.90137V4.88249H18.8567V2.90137C18.8567 2.67759 18.7678 2.46298 18.6096 2.30475C18.4513 2.14651 18.2367 2.05762 18.0129 2.05762C17.7892 2.05762 17.5745 2.14651 17.4163 2.30475C17.2581 2.46298 17.1692 2.67759 17.1692 2.90137V4.88249H13.9196V2.90137C13.9196 2.67759 13.8307 2.46298 13.6725 2.30475C13.5143 2.14651 13.2996 2.05762 13.0759 2.05762C12.8521 2.05762 12.6375 2.14651 12.4792 2.30475C12.321 2.46298 12.2321 2.67759 12.2321 2.90137V4.88249H7.28774C6.65011 4.88324 6.03882 5.1369 5.58799 5.58783C5.13717 6.03876 4.88365 6.65011 4.88305 7.28774V12.2192H2.90137C2.67759 12.2192 2.46298 12.3081 2.30475 12.4663C2.14651 12.6245 2.05762 12.8392 2.05762 13.0629C2.05762 13.2867 2.14651 13.5013 2.30475 13.6596C2.46298 13.8178 2.67759 13.9067 2.90137 13.9067H4.88305V17.1557H2.90137C2.79056 17.1557 2.68085 17.1775 2.57848 17.2199C2.47611 17.2623 2.3831 17.3245 2.30475 17.4028C2.2264 17.4812 2.16425 17.5742 2.12184 17.6765C2.07944 17.7789 2.05762 17.8886 2.05762 17.9994C2.05762 18.1102 2.07944 18.2199 2.12184 18.3223C2.16425 18.4247 2.2264 18.5177 2.30475 18.5961C2.3831 18.6744 2.47611 18.7365 2.57848 18.779C2.68085 18.8214 2.79056 18.8432 2.90137 18.8432H4.88305V22.0933H2.90137C2.67759 22.0933 2.46298 22.1822 2.30475 22.3404C2.14651 22.4987 2.05762 22.7133 2.05762 22.9371C2.05762 23.1608 2.14651 23.3754 2.30475 23.5337C2.46298 23.6919 2.67759 23.7808 2.90137 23.7808H4.88305V28.7122C4.88365 29.3499 5.13717 29.9612 5.58799 30.4122C6.03882 30.8631 6.65011 31.1167 7.28774 31.1175H12.2321V33.0986C12.2321 33.3224 12.321 33.537 12.4792 33.6952C12.6375 33.8535 12.8521 33.9424 13.0759 33.9424C13.2996 33.9424 13.5143 33.8535 13.6725 33.6952C13.8307 33.537 13.9196 33.3224 13.9196 33.0986V31.1175H17.1692V33.0986C17.1692 33.3224 17.2581 33.537 17.4163 33.6952C17.5745 33.8535 17.7892 33.9424 18.0129 33.9424C18.2367 33.9424 18.4513 33.8535 18.6096 33.6952C18.7678 33.537 18.8567 33.3224 18.8567 33.0986V31.1175H22.1068V33.0986C22.1068 33.3224 22.1957 33.537 22.3539 33.6952C22.5122 33.8535 22.7268 33.9424 22.9506 33.9424C23.1743 33.9424 23.3889 33.8535 23.5472 33.6952C23.7054 33.537 23.7943 33.3224 23.7943 33.0986V31.1175H28.7128C29.3504 31.1167 29.9617 30.8631 30.4126 30.4122C30.8634 29.9612 31.1169 29.3499 31.1175 28.7122V23.778H33.0986C33.3224 23.778 33.537 23.6891 33.6952 23.5309C33.8535 23.3726 33.9424 23.158 33.9424 22.9342C33.9424 22.7105 33.8535 22.4959 33.6952 22.3376C33.537 22.1794 33.3224 22.0905 33.0986 22.0905H31.1175V18.8404L33.0986 18.8432ZM29.43 28.7122C29.4298 28.9025 29.3543 29.0848 29.2198 29.2194C29.0854 29.354 28.903 29.4297 28.7128 29.43H7.28774C7.09753 29.4297 6.91519 29.354 6.78074 29.2194C6.64629 29.0848 6.5707 28.9025 6.57055 28.7122V7.28774C6.5707 7.09753 6.64629 6.91514 6.78074 6.78058C6.91519 6.64602 7.09753 6.57029 7.28774 6.56999H28.7128C28.903 6.57029 29.0854 6.64602 29.2198 6.78058C29.3543 6.91514 29.4298 7.09753 29.43 7.28774V28.7122Z" fill="#666666"/>
</svg>
